<svg width="2340" height="1224" viewBox="0 0 2340 1224" fill="none" xmlns="http://www.w3.org/2000/svg">
<path d="M1007.4 544.3C1002.7 549.7 996.9 554 990 557.2C983.1 560.3 975.15 561.85 966.15 561.85C957.95 561.85 950.35 560.5 943.35 557.8C936.45 555.1 930.45 551.3 925.35 546.4C920.25 541.4 916.25 535.45 913.35 528.55C910.45 521.65 909 514.05 909 505.75C909 497.25 910.45 489.55 913.35 482.65C916.35 475.75 920.45 469.9 925.65 465.1C930.85 460.2 936.95 456.45 943.95 453.85C950.95 451.25 958.5 449.95 966.6 449.95C974.1 449.95 981.45 451.3 988.65 454C995.95 456.6 1001.85 460.45 1006.35 465.55L988.95 482.95C986.55 479.65 983.4 477.2 979.5 475.6C975.6 474 971.6 473.2 967.5 473.2C963 473.2 958.85 474.05 955.05 475.75C951.35 477.35 948.15 479.6 945.45 482.5C942.75 485.4 940.65 488.85 939.15 492.85C937.65 496.75 936.9 501.05 936.9 505.75C936.9 510.55 937.65 514.95 939.15 518.95C940.65 522.95 942.7 526.4 945.3 529.3C948 532.1 951.2 534.3 954.9 535.9C958.6 537.5 962.65 538.3 967.05 538.3C972.15 538.3 976.6 537.3 980.4 535.3C984.2 533.3 987.25 530.7 989.55 527.5L1007.4 544.3ZM1168.59 505.45C1168.59 513.85 1167.14 521.55 1164.24 528.55C1161.34 535.45 1157.29 541.4 1152.09 546.4C1146.99 551.3 1140.89 555.1 1133.79 557.8C1126.69 560.5 1118.99 561.85 1110.69 561.85C1102.39 561.85 1094.69 560.5 1087.59 557.8C1080.59 555.1 1074.49 551.3 1069.29 546.4C1064.19 541.4 1060.19 535.45 1057.29 528.55C1054.39 521.55 1052.94 513.85 1052.94 505.45C1052.94 496.95 1054.39 489.3 1057.29 482.5C1060.19 475.6 1064.19 469.75 1069.29 464.95C1074.49 460.15 1080.59 456.45 1087.59 453.85C1094.69 451.25 1102.39 449.95 1110.69 449.95C1118.99 449.95 1126.69 451.25 1133.79 453.85C1140.89 456.45 1146.99 460.15 1152.09 464.95C1157.29 469.75 1161.34 475.6 1164.24 482.5C1167.14 489.3 1168.59 496.95 1168.59 505.45ZM1141.14 505.45C1141.14 500.85 1140.39 496.55 1138.89 492.55C1137.39 488.55 1135.29 485.15 1132.59 482.35C1129.99 479.45 1126.79 477.2 1122.99 475.6C1119.29 473.9 1115.19 473.05 1110.69 473.05C1106.19 473.05 1102.09 473.9 1098.39 475.6C1094.69 477.2 1091.49 479.45 1088.79 482.35C1086.09 485.15 1083.99 488.55 1082.49 492.55C1081.09 496.55 1080.39 500.85 1080.39 505.45C1080.39 510.25 1081.14 514.7 1082.64 518.8C1084.14 522.8 1086.19 526.25 1088.79 529.15C1091.49 532.05 1094.69 534.35 1098.39 536.05C1102.09 537.65 1106.19 538.45 1110.69 538.45C1115.19 538.45 1119.29 537.65 1122.99 536.05C1126.69 534.35 1129.89 532.05 1132.59 529.15C1135.29 526.25 1137.39 522.8 1138.89 518.8C1140.39 514.7 1141.14 510.25 1141.14 505.45ZM1226.72 559V452.8H1252.52V536.65H1293.62V559H1226.72ZM1453.09 505.45C1453.09 513.85 1451.64 521.55 1448.74 528.55C1445.84 535.45 1441.79 541.4 1436.59 546.4C1431.49 551.3 1425.39 555.1 1418.29 557.8C1411.19 560.5 1403.49 561.85 1395.19 561.85C1386.89 561.85 1379.19 560.5 1372.09 557.8C1365.09 555.1 1358.99 551.3 1353.79 546.4C1348.69 541.4 1344.69 535.45 1341.79 528.55C1338.89 521.55 1337.44 513.85 1337.44 505.45C1337.44 496.95 1338.89 489.3 1341.79 482.5C1344.69 475.6 1348.69 469.75 1353.79 464.95C1358.99 460.15 1365.09 456.45 1372.09 453.85C1379.19 451.25 1386.89 449.95 1395.19 449.95C1403.49 449.95 1411.19 451.25 1418.29 453.85C1425.39 456.45 1431.49 460.15 1436.59 464.95C1441.79 469.75 1445.84 475.6 1448.74 482.5C1451.64 489.3 1453.09 496.95 1453.09 505.45ZM1425.64 505.45C1425.64 500.85 1424.89 496.55 1423.39 492.55C1421.89 488.55 1419.79 485.15 1417.09 482.35C1414.49 479.45 1411.29 477.2 1407.49 475.6C1403.79 473.9 1399.69 473.05 1395.19 473.05C1390.69 473.05 1386.59 473.9 1382.89 475.6C1379.19 477.2 1375.99 479.45 1373.29 482.35C1370.59 485.15 1368.49 488.55 1366.99 492.55C1365.59 496.55 1364.89 500.85 1364.89 505.45C1364.89 510.25 1365.64 514.7 1367.14 518.8C1368.64 522.8 1370.69 526.25 1373.29 529.15C1375.99 532.05 1379.19 534.35 1382.89 536.05C1386.59 537.65 1390.69 538.45 1395.19 538.45C1399.69 538.45 1403.79 537.65 1407.49 536.05C1411.19 534.35 1414.39 532.05 1417.09 529.15C1419.79 526.25 1421.89 522.8 1423.39 518.8C1424.89 514.7 1425.64 510.25 1425.64 505.45ZM1578.73 559L1535.98 489.55H1535.53L1536.13 559H1511.23V452.8H1540.48L1583.08 522.1H1583.53L1582.93 452.8H1607.83V559H1578.73ZM1722.58 514V559H1696.93V514L1657.03 452.8H1688.08L1710.73 492.1L1733.38 452.8H1763.38L1722.58 514ZM981.45 764L938.7 694.55H938.25L938.85 764H913.95V657.8H943.2L985.8 727.1H986.25L985.65 657.8H1010.55V764H981.45ZM1073.71 764V657.8H1145.11V679.55H1098.46V699.5H1142.56V720.05H1098.46V742.1H1147.81V764H1073.71ZM1251.52 679.7V764H1225.87V679.7H1195.87V657.8H1281.52V679.7H1251.52ZM1446.98 764H1421.63L1400.63 692.15H1400.18L1379.18 764H1353.68L1323.53 657.8H1351.13L1367.93 728.45H1368.38L1387.28 657.8H1413.98L1433.03 728.45H1433.48L1450.58 657.8H1477.28L1446.98 764ZM1638.48 710.45C1638.48 718.85 1637.03 726.55 1634.13 733.55C1631.23 740.45 1627.18 746.4 1621.98 751.4C1616.88 756.3 1610.78 760.1 1603.68 762.8C1596.58 765.5 1588.88 766.85 1580.58 766.85C1572.28 766.85 1564.58 765.5 1557.48 762.8C1550.48 760.1 1544.38 756.3 1539.18 751.4C1534.08 746.4 1530.08 740.45 1527.18 733.55C1524.28 726.55 1522.83 718.85 1522.83 710.45C1522.83 701.95 1524.28 694.3 1527.18 687.5C1530.08 680.6 1534.08 674.75 1539.18 669.95C1544.38 665.15 1550.48 661.45 1557.48 658.85C1564.58 656.25 1572.28 654.95 1580.58 654.95C1588.88 654.95 1596.58 656.25 1603.68 658.85C1610.78 661.45 1616.88 665.15 1621.98 669.95C1627.18 674.75 1631.23 680.6 1634.13 687.5C1637.03 694.3 1638.48 701.95 1638.48 710.45ZM1611.03 710.45C1611.03 705.85 1610.28 701.55 1608.78 697.55C1607.28 693.55 1605.18 690.15 1602.48 687.35C1599.88 684.45 1596.68 682.2 1592.88 680.6C1589.18 678.9 1585.08 678.05 1580.58 678.05C1576.08 678.05 1571.98 678.9 1568.28 680.6C1564.58 682.2 1561.38 684.45 1558.68 687.35C1555.98 690.15 1553.88 693.55 1552.38 697.55C1550.98 701.55 1550.28 705.85 1550.28 710.45C1550.28 715.25 1551.03 719.7 1552.53 723.8C1554.03 727.8 1556.08 731.25 1558.68 734.15C1561.38 737.05 1564.58 739.35 1568.28 741.05C1571.98 742.65 1576.08 743.45 1580.58 743.45C1585.08 743.45 1589.18 742.65 1592.88 741.05C1596.58 739.35 1599.78 737.05 1602.48 734.15C1605.18 731.25 1607.28 727.8 1608.78 723.8C1610.28 719.7 1611.03 715.25 1611.03 710.45ZM1753.47 764L1730.52 721.85H1721.82V764H1696.62V657.8H1737.12C1742.22 657.8 1747.17 658.35 1751.97 659.45C1756.87 660.45 1761.22 662.2 1765.02 664.7C1768.92 667.2 1772.02 670.5 1774.32 674.6C1776.62 678.7 1777.77 683.8 1777.77 689.9C1777.77 697.1 1775.82 703.15 1771.92 708.05C1768.02 712.95 1762.62 716.45 1755.72 718.55L1783.47 764H1753.47ZM1752.42 690.35C1752.42 687.85 1751.87 685.85 1750.77 684.35C1749.77 682.75 1748.42 681.55 1746.72 680.75C1745.12 679.85 1743.27 679.25 1741.17 678.95C1739.17 678.65 1737.22 678.5 1735.32 678.5H1721.67V703.25H1733.82C1735.92 703.25 1738.07 703.1 1740.27 702.8C1742.47 702.4 1744.47 701.75 1746.27 700.85C1748.07 699.95 1749.52 698.65 1750.62 696.95C1751.82 695.25 1752.42 693.05 1752.42 690.35ZM1902.28 764L1862.83 715.1H1862.53V764H1837.33V657.8H1862.53V701H1862.98L1900.93 657.8H1933.03L1887.28 706.7L1935.73 764H1902.28Z" fill="#289BDC"/>
<rect x="457.676" y="380.992" width="152.276" height="152.276" transform="rotate(45 457.676 380.992)" fill="#289BDC"/>
<rect x="457.676" y="617.648" width="152.276" height="152.276" transform="rotate(45 457.676 617.648)" fill="#289BDC"/>
<rect x="689.984" y="380.992" width="152.276" height="152.276" transform="rotate(45 689.984 380.992)" fill="#289BDC"/>
<rect x="689.984" y="617.648" width="152.276" height="152.276" transform="rotate(45 689.984 617.648)" fill="#289BDC"/>
</svg>
