<svg xmlns="http://www.w3.org/2000/svg" viewBox="0 0 448.45 135.41"><title>colonyNetwork_combomark</title><g id="sketches"><path d="M92.24,66.84a5.53,5.53,0,1,0,5.56-5.51h0a5.53,5.53,0,0,0-5.56,5.51m15.27,0A9.72,9.72,0,1,1,97.8,57.1a9.71,9.71,0,0,1,9.71,9.74"/><path d="M148.28,66.84a5.53,5.53,0,1,0,5.56-5.51h0a5.54,5.54,0,0,0-5.56,5.51m15.27,0a9.71,9.71,0,1,1-9.71-9.74,9.72,9.72,0,0,1,9.71,9.74"/><polygon points="192.13 57.43 189.37 57.43 189.37 68.91 179.85 57.43 175.29 57.43 175.29 74.11 177.09 76.24 179.85 76.24 179.85 64.73 189.37 76.24 193.93 76.24 193.93 59.56 192.13 57.43"/><path d="M68.17,61.19a5.37,5.37,0,0,1,5,2.85H77V61.8a10,10,0,0,0-8.85-4.7C62.27,57.1,58,61.47,58,66.7a9.79,9.79,0,0,0,10.18,9.87A10.17,10.17,0,0,0,77,71.68v-2.2h-3.9a5.47,5.47,0,0,1-5,2.84,5.54,5.54,0,0,1-5.59-5.61,5.39,5.39,0,0,1,5.59-5.51"/><polygon points="131.09 72.04 123.19 72.04 123.19 59.68 123.19 57.43 121.29 57.43 121.1 57.43 120.98 57.43 118.65 59.41 118.65 73.71 118.65 73.89 118.65 76.24 120.64 76.24 133.06 76.24 133.06 74.37 131.09 72.04"/><polygon points="212.22 74.15 214.04 76.3 216.81 76.3 216.81 76.3 216.81 69.15 222.72 60.59 222.72 60.59 224.93 57.38 219.62 57.38 216.38 62.33 214.56 65.11 214.3 64.73 209.41 57.38 204.15 57.38 206.37 60.61 206.37 60.61 212.22 69.15 212.22 74.15"/><path d="M253.71,57.51h-2.44v13h-.05l-8-13h-5.61v16.6l1.8,2.13h2.33V62.9h.05L250,76.24h5.4V59.5Z" style="fill:#1e99eb"/><path d="M272.49,72.43V68.62h8.12V64.81h-8.12V61.32h8.59V57.51H268.36V76.24h13.2V72.43Z" style="fill:#1e99eb"/><path d="M291.14,57.51v3.65h5.34v13l1.73,2h2.4V61.16H306V57.51Z" style="fill:#1e99eb"/><path d="M337.52,57.51l-3.15,12.33h-.05l-3.89-12.33h-3.84l-3.91,12h-.05l-3-12h-4.5l5.55,18.73h3.55l4.13-13h.05l4.13,13h3.67l5.48-18.73Z" style="fill:#1e99eb"/><path d="M368.93,62.8a8.91,8.91,0,0,0-2.1-3.11,9.41,9.41,0,0,0-3.2-2,12.2,12.2,0,0,0-8.09,0,9.36,9.36,0,0,0-3.21,2,8.91,8.91,0,0,0-2.1,3.11,11.45,11.45,0,0,0,0,8.15,9,9,0,0,0,2.1,3.11,9.36,9.36,0,0,0,3.21,2,12.37,12.37,0,0,0,8.09,0,9.41,9.41,0,0,0,3.2-2,9,9,0,0,0,2.1-3.11,11.3,11.3,0,0,0,0-8.15ZM365,69.29a5.37,5.37,0,0,1-3,3.16,6.18,6.18,0,0,1-2.4.45,6.1,6.1,0,0,1-2.39-.45,5.27,5.27,0,0,1-1.84-1.25,5.64,5.64,0,0,1-1.18-1.91,7.29,7.29,0,0,1,0-4.82,5.69,5.69,0,0,1,1.18-1.92,5.29,5.29,0,0,1,1.84-1.26,6.1,6.1,0,0,1,2.39-.45,6.18,6.18,0,0,1,2.4.45,5.41,5.41,0,0,1,3,3.18,7.29,7.29,0,0,1,0,4.82Z" style="fill:#1e99eb"/><path d="M390.09,68.33a4.66,4.66,0,0,0,3-1.76,5.49,5.49,0,0,0,1-3.37,6,6,0,0,0-.56-2.74A4.59,4.59,0,0,0,392,58.71a6.31,6.31,0,0,0-2.25-.92,12.45,12.45,0,0,0-2.71-.28h-7.25V74.64l1.36,1.6H384V68.75h2l3.91,7.49h5Zm-.57-4a2,2,0,0,1-.83.62,3.9,3.9,0,0,1-1.13.24c-.41,0-.81,0-1.18,0H384V61h2.7a9,9,0,0,1,1.14.08,3.26,3.26,0,0,1,1,.3,1.83,1.83,0,0,1,1,1.79A1.89,1.89,0,0,1,389.52,64.36Z" style="fill:#1e99eb"/><path d="M413.58,66.21l8.34-8.7h-5.4l-7.28,7.78V57.51h-4.49V76.24h4.49V67.35l7.62,8.89h5.77Z" style="fill:#1e99eb"/><path d="M68.14,29.75A5.12,5.12,0,1,0,63,24.64h0a5.11,5.11,0,0,0,5.11,5.12h0Z" style="fill:#a6c7ff"/><path d="M68.14,105.18a5.12,5.12,0,1,0,5.12,5.11h0a5.12,5.12,0,0,0-5.1-5.13h0Z" style="fill:#a6c7ff"/><circle cx="49.27" cy="56.58" r="4.26" style="fill:#a6c7ff"/><path d="M49.27,37.79a2.36,2.36,0,1,0-2.35-2.35h0a2.35,2.35,0,0,0,2.35,2.35Z" style="fill:#a6c7ff"/><circle cx="31.05" cy="46.07" r="6.28" transform="translate(-23.48 35.45) rotate(-45)" style="fill:#a6c7ff"/><path d="M31.05,83.5a5.12,5.12,0,1,0,5.12,5.12,5.12,5.12,0,0,0-5.12-5.12Z" style="fill:#a6c7ff"/><path d="M33,67.46a2,2,0,1,0-2,2,2,2,0,0,0,2-2Z" style="fill:#a6c7ff"/><path d="M88.22,78.39a2,2,0,1,0-2,2,2,2,0,0,0,2-2Z" style="fill:#a6c7ff"/><path d="M88.22,55.35a2,2,0,1,0-2,2,2,2,0,0,0,2-2Z" style="fill:#a6c7ff"/><path d="M107,46.31a2,2,0,1,0-2,2,2,2,0,0,0,2-2Z" style="fill:#a6c7ff"/><path d="M109.28,88.62A4.27,4.27,0,1,1,105,84.36,4.26,4.26,0,0,1,109.28,88.62Z" style="fill:#a6c7ff"/><path d="M68.46,50.34a4.27,4.27,0,1,0-4.26-4.27,4.26,4.26,0,0,0,4.26,4.27Z" style="fill:#a6c7ff"/><circle cx="49.27" cy="56.58" r="4.26" style="fill:#a6c7ff"/><path d="M49.27,82.65A4.26,4.26,0,1,0,45,78.39a4.26,4.26,0,0,0,4.26,4.26Z" style="fill:#a6c7ff"/><path d="M86.23,39.37A4.26,4.26,0,1,0,82,35.11a4.27,4.27,0,0,0,4.26,4.26Z" style="fill:#a6c7ff"/><path d="M87,96.63a2.85,2.85,0,1,0,2.85,2.85h0A2.85,2.85,0,0,0,87,96.63Z" style="fill:#a6c7ff"/><path d="M49.27,96.63a2.85,2.85,0,1,0,2.85,2.85h0a2.85,2.85,0,0,0-2.85-2.85Z" style="fill:#a6c7ff"/><path d="M68.14,84.16a5.09,5.09,0,1,0,5.09,5.09h0a5.09,5.09,0,0,0-5.09-5.09Z" style="fill:#a6c7ff"/></g></svg>