<svg xmlns="http://www.w3.org/2000/svg" viewBox="0 0 147 60"><title>1</title><g id="logos"><rect x="15.56" y="33.08" width="10.74" height="10.74" transform="translate(62.92 50.84) rotate(135)" style="fill:#289bdc"/><rect x="15.56" y="16.18" width="10.74" height="10.74" transform="translate(50.97 21.99) rotate(135)" style="fill:#289bdc"/><rect x="32.46" y="16.18" width="10.74" height="10.74" transform="translate(79.82 10.04) rotate(135)" style="fill:#289bdc"/><rect x="32.46" y="33" width="10.74" height="10.74" transform="translate(91.71 38.75) rotate(135)" style="fill:#289bdc"/><path d="M64.89,24.65a4.83,4.83,0,0,1-1.45,1,5.23,5.23,0,0,1-.92.31,4.76,4.76,0,0,1-1,.11,5,5,0,0,1-1.29-.16,5.42,5.42,0,0,1-1.16-.47,4.39,4.39,0,0,1-1-.73,4.61,4.61,0,0,1-.76-.94,4.81,4.81,0,0,1-.49-1.11,4.64,4.64,0,0,1-.17-1.24,4.54,4.54,0,0,1,1.42-3.29,4.72,4.72,0,0,1,1-.73A5,5,0,0,1,60.21,17a5.43,5.43,0,0,1,1.29-.16,4.57,4.57,0,0,1,1,.11,4.62,4.62,0,0,1,.91.3,4.13,4.13,0,0,1,.79.45,5.64,5.64,0,0,1,.69.59l-1.26,1.34a2.65,2.65,0,0,0-.94-.75,2.86,2.86,0,0,0-1.19-.26,2.82,2.82,0,0,0-1.08.22,2.77,2.77,0,0,0-.89.61,2.88,2.88,0,0,0-.6.91,3,3,0,0,0,0,2.27,2.88,2.88,0,0,0,.6.91,2.77,2.77,0,0,0,.89.61,2.82,2.82,0,0,0,1.08.22,3.17,3.17,0,0,0,.61-.07,2.75,2.75,0,0,0,.57-.2,2.9,2.9,0,0,0,1-.74Z" style="fill:#00284b"/><path d="M67.42,21.45a4.54,4.54,0,0,1,1.42-3.29,4.72,4.72,0,0,1,1-.73A5,5,0,0,1,71,17a5.43,5.43,0,0,1,1.29-.16,5.56,5.56,0,0,1,1.29.16,5.13,5.13,0,0,1,1.16.47,4.72,4.72,0,0,1,1,.73A4.6,4.6,0,0,1,77,20.21a4.23,4.23,0,0,1,.18,1.24A4.28,4.28,0,0,1,77,22.69a4.42,4.42,0,0,1-.49,1.11,4.29,4.29,0,0,1-.76.94,4.39,4.39,0,0,1-1,.73,5.64,5.64,0,0,1-1.16.47,5.07,5.07,0,0,1-1.29.16A5,5,0,0,1,71,25.94a5.42,5.42,0,0,1-1.16-.47,4.39,4.39,0,0,1-1-.73,4.61,4.61,0,0,1-.76-.94,4.81,4.81,0,0,1-.49-1.11A4.64,4.64,0,0,1,67.42,21.45Zm2.06,0a3,3,0,0,0,.22,1.13,2.88,2.88,0,0,0,.6.91,2.77,2.77,0,0,0,.89.61,2.82,2.82,0,0,0,1.08.22,2.88,2.88,0,0,0,1.1-.22,2.78,2.78,0,0,0,1.47-1.52,3,3,0,0,0,0-2.27,2.78,2.78,0,0,0-1.47-1.52,2.88,2.88,0,0,0-1.1-.22,2.82,2.82,0,0,0-1.08.22,2.77,2.77,0,0,0-.89.61,2.88,2.88,0,0,0-.6.91A3,3,0,0,0,69.48,21.46Z" style="fill:#00284b"/><path d="M80.34,17h2.07v7.1h3.72V25.9H80.34Z" style="fill:#00284b"/><path d="M88.45,21.45a4.42,4.42,0,0,1,.66-2.35,4.29,4.29,0,0,1,.76-.94,4.72,4.72,0,0,1,1-.73A5.05,5.05,0,0,1,92,17a5.58,5.58,0,0,1,1.3-.16,5.41,5.41,0,0,1,1.28.16,5,5,0,0,1,1.16.47,4.78,4.78,0,0,1,1,.73,4.29,4.29,0,0,1,.76.94A4.62,4.62,0,0,1,98,20.21a4.22,4.22,0,0,1,.17,1.24A4.27,4.27,0,0,1,98,22.69a4.81,4.81,0,0,1-.49,1.11,4.29,4.29,0,0,1-.76.94,4.45,4.45,0,0,1-1,.73,5.42,5.42,0,0,1-1.16.47,4.93,4.93,0,0,1-1.28.16,5.09,5.09,0,0,1-1.3-.16,5.55,5.55,0,0,1-1.15-.47,4.39,4.39,0,0,1-1-.73,4.29,4.29,0,0,1-.76-.94,4.81,4.81,0,0,1-.49-1.11A4.64,4.64,0,0,1,88.45,21.45Zm2.06,0a2.85,2.85,0,0,0,.22,1.13,2.58,2.58,0,0,0,.6.91,2.72,2.72,0,0,0,.88.61,2.81,2.81,0,0,0,2.18,0,2.77,2.77,0,0,0,.89-.61,2.7,2.7,0,0,0,.59-.91,3,3,0,0,0,0-2.27,2.7,2.7,0,0,0-.59-.91,2.77,2.77,0,0,0-.89-.61,2.81,2.81,0,0,0-2.18,0,2.72,2.72,0,0,0-.88.61,2.58,2.58,0,0,0-.6.91A2.86,2.86,0,0,0,90.51,21.46Z" style="fill:#00284b"/><path d="M109.46,25.9h-1.79l-4.23-5.32V25.9h-2.07V17h1.8l4.23,5.31V17h2.06Z" style="fill:#00284b"/><path d="M121.05,17l-3.42,5.52V25.9h-2.07V22.55L112.15,17h2.41l2,3.64h0l2-3.64Z" style="fill:#00284b"/><path d="M65.07,42.89H63.28l-4.23-5.32v5.32H57V34h1.8L63,39.32V34h2.06Z" style="fill:#00284b"/><path d="M68.72,34H75V35.8H70.79v1.81h3.59v1.78H70.79v1.73H75v1.77H68.72Z" style="fill:#00284b"/><path d="M80.06,35.79H77.58V34h7v1.77H82.12v7.1H80.06Z" style="fill:#00284b"/><path d="M96.27,39.93h0L98.13,34h2.19l-3,8.88h-2l-1.67-5.42L92,42.89H90L87,34h2.19L91,39.93h0l1.52-5.88h2.18Z" style="fill:#00284b"/><path d="M102.35,38.44a4.54,4.54,0,0,1,1.42-3.29,5.36,5.36,0,0,1,1-.73,5.18,5.18,0,0,1,2.46-.63,4.94,4.94,0,0,1,1.28.17,5.1,5.1,0,0,1,1.16.46,5.5,5.5,0,0,1,1,.73,4.5,4.5,0,0,1,.76,5.64,5,5,0,0,1-.76,1,5,5,0,0,1-1,.72,5.13,5.13,0,0,1-1.16.47,4.93,4.93,0,0,1-1.28.16,4.89,4.89,0,0,1-2.46-.63,4.88,4.88,0,0,1-1-.72,4.6,4.6,0,0,1-.76-1,4.42,4.42,0,0,1-.66-2.35Zm2.06,0a2.86,2.86,0,0,0,.22,1.14,2.8,2.8,0,0,0,.59.91,3,3,0,0,0,.89.6,2.81,2.81,0,0,0,2.18,0,2.91,2.91,0,0,0,.89-.6,3,3,0,0,0,.59-.91,3,3,0,0,0-.59-3.19,2.77,2.77,0,0,0-.89-.61,2.93,2.93,0,0,0-2.18,0,2.88,2.88,0,0,0-.89.61,2.7,2.7,0,0,0-.59.91A2.86,2.86,0,0,0,104.41,38.45Z" style="fill:#00284b"/><path d="M118.66,40h-1.32v2.89h-2.07V34h3.89a3.78,3.78,0,0,1,1.28.21,3,3,0,0,1,1,.62,2.71,2.71,0,0,1,.66.94,3.07,3.07,0,0,1,.24,1.23,3.53,3.53,0,0,1-.11.88,2.76,2.76,0,0,1-.34.76,3,3,0,0,1-.52.6,2.68,2.68,0,0,1-.69.43l1.88,3.2H120.2Zm.41-1.77a1.28,1.28,0,0,0,.48-.09,1.14,1.14,0,0,0,.39-.25,1,1,0,0,0,.26-.38,1.26,1.26,0,0,0,.09-.49,1.35,1.35,0,0,0-.09-.5,1.12,1.12,0,0,0-.26-.38,1.16,1.16,0,0,0-.39-.26,1.28,1.28,0,0,0-.48-.09h-1.73v2.44Z" style="fill:#00284b"/><path d="M127.69,38.48,131.12,34h2.4L130.41,38l3.25,4.92h-2.44l-2.15-3.4-1.38,1.74v1.66h-2.07V34h2.07Z" style="fill:#00284b"/></g></svg>