<?xml version="1.0" encoding="utf-8"?>
<!-- Generator: Adobe Illustrator 22.1.0, SVG Export Plug-In . SVG Version: 6.00 Build 0)  -->
<svg version="1.1" xmlns="http://www.w3.org/2000/svg" xmlns:xlink="http://www.w3.org/1999/xlink" x="0px" y="0px"
	 viewBox="0 0 413.9 90.6" style="enable-background:new 0 0 413.9 90.6;" xml:space="preserve">
<style type="text/css">
	.st0{fill:#7CD6DF;}
	.st1{fill:#797EFF;}
	.st2{fill:#1E99EB;}
	.st3{fill:#46B77B;}
</style>
<g id="Layer_1">
</g>
<g id="sketches">
	<path d="M59.2,45.1c0,3.1,2.4,5.5,5.5,5.6c3.1,0,5.5-2.4,5.6-5.5c0-3.1-2.4-5.5-5.5-5.6l0,0C61.7,39.5,59.3,42,59.2,45.1
		 M74.5,45.1c0,5.4-4.4,9.7-9.7,9.7s-9.7-4.4-9.7-9.7c0-5.4,4.4-9.7,9.7-9.7C70.1,35.3,74.5,39.7,74.5,45.1"/>
	<path d="M115.3,45.1c0,3.1,2.4,5.5,5.5,5.6c3.1,0,5.5-2.4,5.6-5.5c0-3.1-2.4-5.5-5.5-5.6l0,0C117.8,39.5,115.3,42,115.3,45.1
		 M130.6,45.1c0,5.4-4.4,9.7-9.7,9.7c-5.4,0-9.7-4.4-9.7-9.7c0-5.4,4.4-9.7,9.7-9.7C126.2,35.3,130.6,39.7,130.6,45.1"/>
	<polygon points="159.1,35.7 156.4,35.7 156.4,47.1 146.9,35.7 142.3,35.7 142.3,52.3 144.1,54.5 146.9,54.5 146.9,43 156.4,54.5 
		160.9,54.5 160.9,37.8 	"/>
	<path d="M35.2,39.4c2.4,0,4.1,1.1,5,2.8H44V40c-1.7-2.8-4.8-4.7-8.9-4.7c-5.9,0-10.2,4.4-10.2,9.6c0,5.6,4.3,9.9,10.2,9.9
		c4,0,7.2-2.1,8.8-4.9v-2.2h-3.9l0,0c-0.9,1.7-2.6,2.8-5,2.8c-3.3,0-5.6-2.6-5.6-5.6C29.6,41.8,31.9,39.4,35.2,39.4"/>
	<polygon points="98.1,50.3 90.2,50.3 90.2,37.9 90.2,35.7 88.3,35.7 88.1,35.7 88,35.7 85.7,37.6 85.7,51.9 85.7,52.1 85.7,54.5 
		87.6,54.5 100.1,54.5 100.1,52.6 	"/>
	<polygon points="179.2,52.4 181,54.5 183.8,54.5 183.8,54.5 183.8,47.4 189.7,38.8 189.7,38.8 191.9,35.6 186.6,35.6 183.4,40.6 
		181.6,43.3 181.3,42.9 176.4,35.6 171.2,35.6 173.4,38.8 173.4,38.8 179.2,47.4 	"/>
	<g>
		<g>
			<path class="st2" d="M220.7,35.7h-2.4v13h-0.1l-8-13h-5.6v16.6l1.8,2.1h2.3V41.1h0.1l8.2,13.3h5.4V37.7L220.7,35.7z"/>
			<path class="st2" d="M239.5,50.7v-3.8h8.1V43h-8.1v-3.5h8.6v-3.8h-12.7v18.7h13.2v-3.8H239.5z"/>
			<path class="st2" d="M258.2,35.7v3.6h5.3v13l1.7,2h2.4V39.4h5.3v-3.6H258.2z"/>
			<path class="st2" d="M304.5,35.7l-3.2,12.3h0l-3.9-12.3h-3.8l-3.9,12h0l-3-12h-4.5l5.5,18.7h3.5l4.1-13h0l4.1,13h3.7l5.5-18.7
				H304.5z"/>
			<path class="st2" d="M335.9,41c-0.5-1.2-1.2-2.2-2.1-3.1c-0.9-0.9-2-1.5-3.2-2c-1.2-0.5-2.6-0.7-4-0.7c-1.5,0-2.8,0.2-4,0.7
				c-1.2,0.5-2.3,1.1-3.2,2c-0.9,0.9-1.6,1.9-2.1,3.1c-0.5,1.2-0.8,2.6-0.8,4.1s0.2,2.9,0.8,4.1c0.5,1.2,1.2,2.2,2.1,3.1
				c0.9,0.8,2,1.5,3.2,2c1.2,0.5,2.6,0.7,4,0.7c1.5,0,2.8-0.2,4-0.7c1.2-0.5,2.3-1.1,3.2-2c0.9-0.9,1.6-1.9,2.1-3.1
				c0.5-1.2,0.8-2.6,0.8-4.1S336.5,42.2,335.9,41z M332,47.5c-0.3,0.7-0.7,1.4-1.2,1.9c-0.5,0.5-1.1,0.9-1.8,1.2
				c-0.7,0.3-1.5,0.4-2.4,0.4s-1.7-0.1-2.4-0.4c-0.7-0.3-1.3-0.7-1.8-1.2c-0.5-0.5-0.9-1.2-1.2-1.9c-0.3-0.7-0.4-1.5-0.4-2.4
				c0-0.9,0.1-1.7,0.4-2.4c0.3-0.7,0.7-1.4,1.2-1.9s1.1-1,1.8-1.3c0.7-0.3,1.5-0.5,2.4-0.5s1.7,0.2,2.4,0.5c0.7,0.3,1.3,0.7,1.8,1.3
				c0.5,0.5,0.9,1.2,1.2,1.9c0.3,0.7,0.4,1.5,0.4,2.4C332.4,46,332.3,46.8,332,47.5z"/>
			<path class="st2" d="M357.1,46.6c1.3-0.2,2.3-0.8,3-1.8c0.7-0.9,1-2,1-3.4c0-1.1-0.2-2-0.6-2.7c-0.4-0.7-0.9-1.3-1.5-1.8
				c-0.6-0.4-1.4-0.7-2.2-0.9c-0.9-0.2-1.8-0.3-2.7-0.3h-7.2v17.1l1.4,1.6h2.8V47h2l3.9,7.5h5L357.1,46.6z M356.5,42.6
				c-0.2,0.3-0.5,0.5-0.8,0.6c-0.3,0.1-0.7,0.2-1.1,0.2c-0.4,0-0.8,0-1.2,0H351v-4.3h2.7c0.4,0,0.8,0,1.1,0.1c0.4,0,0.7,0.1,1,0.3
				c0.3,0.1,0.5,0.4,0.7,0.6c0.2,0.3,0.3,0.7,0.3,1.1C356.9,41.9,356.7,42.3,356.5,42.6z"/>
			<path class="st2" d="M380.6,44.4l8.3-8.7h-5.4l-7.3,7.8v-7.8h-4.5v18.7h2.7h1.8v-8.9l7.6,8.9h5.8L380.6,44.4z"/>
		</g>
	</g>
</g>
</svg>
