<svg id="Layer_1" data-name="Layer 1" xmlns="http://www.w3.org/2000/svg" viewBox="0 0 482.94 326.52"><title>domains</title><text transform="translate(201.13 127.39)" style="font-size:11px;fill:#3a3e43;font-family:Avenir-Medium, Avenir;letter-spacing:0.03995028409090909em">Development</text><text transform="translate(137.83 208.64)" style="font-size:11px;fill:#3a3e43;font-family:Avenir-Medium, Avenir;letter-spacing:0.0400390625em">F<tspan x="6.75" y="0" style="letter-spacing:0.022017045454545456em">r</tspan><tspan x="11.07" y="0" style="letter-spacing:0.03995028409090909em">ontend</tspan></text><text transform="translate(285.8 208.64)" style="font-size:11px;fill:#3a3e43;font-family:Avenir-Medium, Avenir;letter-spacing:0.0400390625em">Backend</text><path d="M91.94,100.15V92a10.89,10.89,0,0,1,10.89-10.9h47a10.89,10.89,0,0,0,10.9-10.89v-7" style="fill:none;stroke:#797eff;stroke-miterlimit:10;stroke-width:0.5px"/><polygon points="93.81 99.61 91.94 102.84 90.07 99.61 93.81 99.61" style="fill:#797eff"/><path d="M237.5,100.15V92a10.9,10.9,0,0,0-10.9-10.9h-47A10.88,10.88,0,0,1,168.73,70.2v-7" style="fill:none;stroke:#797eff;stroke-miterlimit:10;stroke-width:0.5px"/><polygon points="239.37 99.61 237.5 102.84 235.63 99.61 239.37 99.61" style="fill:#797eff"/><path d="M164.3,181.36v-8.17a10.89,10.89,0,0,1,10.89-10.89h47a10.9,10.9,0,0,0,10.9-10.9v-7" style="fill:none;stroke:#797eff;stroke-miterlimit:10;stroke-width:0.5px"/><polygon points="166.17 180.81 164.3 184.05 162.43 180.81 166.17 180.81" style="fill:#797eff"/><path d="M309.86,181.36v-8.17A10.9,10.9,0,0,0,299,162.3H252a10.89,10.89,0,0,1-10.89-10.9v-7" style="fill:none;stroke:#797eff;stroke-miterlimit:10;stroke-width:0.5px"/><polygon points="311.73 180.81 309.86 184.05 307.99 180.81 311.73 180.81" style="fill:#797eff"/><path d="M243.65,262.54v-8.16a10.9,10.9,0,0,1,10.89-10.9h47a10.9,10.9,0,0,0,10.89-10.89v-7.05" style="fill:none;stroke:#797eff;stroke-miterlimit:10;stroke-width:0.5px"/><polygon points="245.52 261.99 243.65 265.23 241.78 261.99 245.52 261.99" style="fill:#797eff"/><path d="M389.21,262.54v-8.16a10.9,10.9,0,0,0-10.89-10.9h-47a10.9,10.9,0,0,1-10.89-10.89v-7.05" style="fill:none;stroke:#797eff;stroke-miterlimit:10;stroke-width:0.5px"/><polygon points="391.08 261.99 389.21 265.23 387.34 261.99 391.08 261.99" style="fill:#797eff"/><text transform="translate(73.3 127.36)" style="font-size:11px;fill:#3a3e43;font-family:Avenir-Medium, Avenir;letter-spacing:0.03995028409090909em">Design</text><path d="M128.82,131.3v3a5,5,0,0,1-5,5H59a5,5,0,0,1-5-5v-3a5,5,0,0,0,5,5h64.8a5,5,0,0,0,5-5Z" style="fill:#f2f2ff"/><path d="M128.82,112.68v21.58a5,5,0,0,1-5,5H59a5,5,0,0,1-5-5V112.68a5,5,0,0,1,5-5h64.8A5,5,0,0,1,128.82,112.68Z" style="fill:none;stroke:#797eff;stroke-miterlimit:10;stroke-width:0.5px"/><text transform="translate(124.03 45.9)" style="font-size:11px;fill:#3a3e43;font-family:Avenir-Medium, Avenir;letter-spacing:0.03995028409090909em">Colony Domain</text><path d="M225.38,49.84v3a5,5,0,0,1-5,5H109.51a5,5,0,0,1-5-5v-3a5,5,0,0,0,5,5H220.38a5,5,0,0,0,5-5Z" style="fill:#f2f2ff"/><path d="M225.38,31.22V52.8a5,5,0,0,1-5,5H109.51a5,5,0,0,1-5-5V31.22a5,5,0,0,1,5-5H220.38A5,5,0,0,1,225.38,31.22Z" style="fill:none;stroke:#797eff;stroke-miterlimit:10;stroke-width:0.5px"/><path d="M292.63,131.3v3a5,5,0,0,1-5,5H186.74a5,5,0,0,1-5-5v-3a5,5,0,0,0,5,5H287.63a5,5,0,0,0,5-5Z" style="fill:#f2f2ff"/><path d="M292.63,112.68v21.58a5,5,0,0,1-5,5H186.74a5,5,0,0,1-5-5V112.68a5,5,0,0,1,5-5H287.63A5,5,0,0,1,292.63,112.68Z" style="fill:none;stroke:#797eff;stroke-miterlimit:10;stroke-width:0.5px"/><path d="M206,212.67v3a5,5,0,0,1-5,5H123.82a5,5,0,0,1-5-5v-3a5,5,0,0,0,5,5H201a5,5,0,0,0,5-5Z" style="fill:#f2f2ff"/><path d="M206,194.05v21.58a5,5,0,0,1-5,5H123.82a5,5,0,0,1-5-5V194.05a5,5,0,0,1,5-5H201A5,5,0,0,1,206,194.05Z" style="fill:none;stroke:#797eff;stroke-miterlimit:10;stroke-width:0.5px"/><path d="M350.68,212.67v3a5,5,0,0,1-5,5H271.47a5,5,0,0,1-5-5v-3a5,5,0,0,0,5,5h74.21a5,5,0,0,0,5-5Z" style="fill:#f2f2ff"/><path d="M350.68,194.05v21.58a5,5,0,0,1-5,5H271.47a5,5,0,0,1-5-5V194.05a5,5,0,0,1,5-5h74.21A5,5,0,0,1,350.68,194.05Z" style="fill:none;stroke:#797eff;stroke-miterlimit:10;stroke-width:0.5px"/><text transform="translate(220.9 290.37)" style="font-size:11px;fill:#3a3e43;font-family:Avenir-Medium, Avenir;letter-spacing:0.0400390625em">Node.js</text><text transform="translate(374.51 290.37)" style="font-size:11px;fill:#3a3e43;font-family:Avenir-Medium, Avenir;letter-spacing:0.0400390625em">Ruby</text><path d="M282,294.41v3a5,5,0,0,1-5,5h-70.6a5,5,0,0,1-5-5v-3a5,5,0,0,0,5,5H277a5,5,0,0,0,5-5Z" style="fill:#f2f2ff"/><path d="M282,275.79v21.58a5,5,0,0,1-5,5h-70.6a5,5,0,0,1-5-5V275.79a5,5,0,0,1,5-5H277A5,5,0,0,1,282,275.79Z" style="fill:none;stroke:#797eff;stroke-miterlimit:10;stroke-width:0.5px"/><path d="M420.37,294.41v3a5,5,0,0,1-5,5H360.83a5,5,0,0,1-5-5v-3a5,5,0,0,0,5,5h54.54a5,5,0,0,0,5-5Z" style="fill:#f2f2ff"/><path d="M420.37,275.79v21.58a5,5,0,0,1-5,5H360.83a5,5,0,0,1-5-5V275.79a5,5,0,0,1,5-5h54.54A5,5,0,0,1,420.37,275.79Z" style="fill:none;stroke:#797eff;stroke-miterlimit:10;stroke-width:0.5px"/></svg>