<svg id="Layer_1" data-name="Layer 1" xmlns="http://www.w3.org/2000/svg" viewBox="0 0 750 436.68"><title>diagram_1_r1</title><text transform="translate(172.18 343.41)" style="font-size:10px;fill:#3a3e43;font-family:Avenir-Book, Avenir;letter-spacing:-0.01806640625em">r<tspan x="3.14" y="0" style="letter-spacing:0.00009765625em">etu</tspan><tspan x="17.58" y="0" style="letter-spacing:0.01787109375em">r</tspan><tspan x="21.08" y="0" style="letter-spacing:0.00009765625em">n</tspan></text><text transform="translate(154.56 164.94)" style="font-size:10px;fill:#3a3e43;font-family:Avenir-Book, Avenir">ER20 function</text><circle cx="92.25" cy="38.23" r="6.08" style="fill:#b5b3ff"/><path d="M101.62,46.9H82.88a4,4,0,0,0-4,4V68.38h4.34V56.5h1V86.84h7.5V65.78h1V86.84h7.38V56.5h1V68.38h4.45V50.87A4,4,0,0,0,101.62,46.9Z" style="fill:#b5b3ff"/><text transform="translate(49.14 106.52)" style="font-size:11px;fill:#3a3e43;font-family:Avenir-Medium, Avenir;letter-spacing:0.03995028409090909em">Colony Member</text><line x1="92.24" y1="118.43" x2="92.24" y2="119.43" style="fill:none;stroke:#b5b3ff;stroke-miterlimit:10;stroke-width:0.5px"/><line x1="92.24" y1="122.42" x2="92.24" y2="410.4" style="fill:none;stroke:#b5b3ff;stroke-miterlimit:10;stroke-width:0.5px;stroke-dasharray:1.9964032173156738,2.9946048259735107"/><line x1="92.24" y1="411.9" x2="92.24" y2="412.9" style="fill:none;stroke:#b5b3ff;stroke-miterlimit:10;stroke-width:0.5px"/><text transform="translate(244.22 106.52)" style="font-size:11px;fill:#3a3e43;font-family:Avenir-Medium, Avenir;letter-spacing:0.0400390625em">Ether Router</text><line x1="278.75" y1="118.43" x2="278.75" y2="119.43" style="fill:none;stroke:#b5b3ff;stroke-miterlimit:10;stroke-width:0.5px"/><line x1="278.75" y1="122.42" x2="278.75" y2="410.4" style="fill:none;stroke:#b5b3ff;stroke-miterlimit:10;stroke-width:0.5px;stroke-dasharray:1.9964032173156738,2.9946048259735107"/><line x1="278.75" y1="411.9" x2="278.75" y2="412.9" style="fill:none;stroke:#b5b3ff;stroke-miterlimit:10;stroke-width:0.5px"/><text transform="translate(442.19 106.52)" style="font-size:11px;fill:#3a3e43;font-family:Avenir-Medium, Avenir;letter-spacing:0.0400390625em">Resolver</text><line x1="465.24" y1="118.43" x2="465.24" y2="119.43" style="fill:none;stroke:#b5b3ff;stroke-miterlimit:10;stroke-width:0.5px"/><line x1="465.24" y1="122.42" x2="465.24" y2="410.4" style="fill:none;stroke:#b5b3ff;stroke-miterlimit:10;stroke-width:0.5px;stroke-dasharray:1.9964032173156738,2.9946048259735107"/><line x1="465.24" y1="411.9" x2="465.24" y2="412.9" style="fill:none;stroke:#b5b3ff;stroke-miterlimit:10;stroke-width:0.5px"/><text transform="translate(607.57 106.52)" style="font-size:11px;fill:#3a3e43;font-family:Avenir-Medium, Avenir;letter-spacing:0.03995028409090909em">Colony Contract</text><line x1="651.74" y1="118.43" x2="651.74" y2="119.43" style="fill:none;stroke:#b5b3ff;stroke-miterlimit:10;stroke-width:0.5px"/><line x1="651.74" y1="122.42" x2="651.74" y2="410.4" style="fill:none;stroke:#b5b3ff;stroke-miterlimit:10;stroke-width:0.5px;stroke-dasharray:1.9964032173156738,2.9946048259735107"/><line x1="651.74" y1="411.9" x2="651.74" y2="412.9" style="fill:none;stroke:#b5b3ff;stroke-miterlimit:10;stroke-width:0.5px"/><rect x="86.17" y="174.95" width="12.17" height="179.48" style="fill:#797eff"/><rect x="272.66" y="174.95" width="12.17" height="179.48" style="fill:#797eff"/><rect x="459.39" y="190.07" width="12.78" height="59.85" style="fill:#797eff"/><rect x="645.35" y="294.58" width="12.78" height="59.85" style="fill:#797eff"/><line x1="103.34" y1="174.95" x2="264.07" y2="174.95" style="fill:none;stroke:#797eff;stroke-linecap:round;stroke-linejoin:round"/><polygon points="263.34 177.44 267.66 174.95 263.34 172.45 263.34 177.44" style="fill:#797eff"/><text transform="translate(335.23 180.36)" style="font-size:10px;fill:#3a3e43;font-family:Avenir-Book, Avenir">lookup (msg.ig)</text><text transform="translate(301.92 239.91)" style="font-size:10px;fill:#3a3e43;font-family:Avenir-Book, Avenir">tokenAdd<tspan x="44.27" y="0" style="letter-spacing:-0.01806640625em">r</tspan><tspan x="47.41" y="0" style="letter-spacing:0.00009765625em">ess, </tspan><tspan x="67.05" y="0" style="letter-spacing:-0.01796875em">r</tspan><tspan x="70.19" y="0">etu</tspan><tspan x="84.63" y="0" style="letter-spacing:0.01796875em">r</tspan><tspan x="88.13" y="0">n data size</tspan></text><text transform="translate(427.81 284.57)" style="font-size:10px;fill:#3a3e43;font-family:Avenir-Book, Avenir">delegate call</text><text transform="translate(407.34 343.41)" style="font-size:10px;fill:#3a3e43;font-family:Avenir-Book, Avenir">ERC20 function <tspan x="71.69" y="0" style="letter-spacing:-0.01806640625em">r</tspan><tspan x="74.83" y="0">etu</tspan><tspan x="89.27" y="0" style="letter-spacing:0.01796875em">r</tspan><tspan x="92.77" y="0" style="letter-spacing:0.00009765625em">n</tspan></text><line x1="289.83" y1="190.37" x2="450.8" y2="190.37" style="fill:none;stroke:#797eff;stroke-linecap:round;stroke-linejoin:round"/><polygon points="450.07 192.86 454.39 190.37 450.07 187.88 450.07 192.86" style="fill:#797eff"/><line x1="289.83" y1="294.58" x2="637.17" y2="294.58" style="fill:none;stroke:#797eff;stroke-linecap:round;stroke-linejoin:round"/><polygon points="636.44 297.07 640.76 294.58 636.44 292.08 636.44 297.07" style="fill:#797eff"/><line x1="454.39" y1="249.92" x2="453.39" y2="249.92" style="fill:none;stroke:#797eff;stroke-linecap:round;stroke-linejoin:round"/><line x1="450.37" y1="249.92" x2="295.93" y2="249.92" style="fill:none;stroke:#797eff;stroke-linecap:round;stroke-linejoin:round;stroke-dasharray:2.0122530460357666,3.0183794498443604"/><line x1="294.42" y1="249.92" x2="293.42" y2="249.92" style="fill:none;stroke:#797eff;stroke-linecap:round;stroke-linejoin:round"/><polygon points="294.15 247.43 289.83 249.92 294.15 252.41 294.15 247.43" style="fill:#797eff"/><line x1="267.66" y1="353.42" x2="106.93" y2="353.42" style="fill:none;stroke:#797eff;stroke-linecap:round;stroke-linejoin:round"/><polygon points="107.66 350.93 103.34 353.42 107.66 355.92 107.66 350.93" style="fill:#797eff"/><line x1="640.76" y1="353.42" x2="293.42" y2="353.42" style="fill:none;stroke:#797eff;stroke-linecap:round;stroke-linejoin:round"/><polygon points="294.15 350.93 289.83 353.42 294.15 355.92 294.15 350.93" style="fill:#797eff"/><path d="M160.8,110.46v3a5,5,0,0,1-5,5H28.69a5,5,0,0,1-5-5v-3a5,5,0,0,0,5,5H155.8a5,5,0,0,0,5-5Z" style="fill:#f2f2ff"/><path d="M160.8,91.84v21.58a5,5,0,0,1-5,5H28.69a5,5,0,0,1-5-5V91.84a5,5,0,0,1,5-5H155.8A5,5,0,0,1,160.8,91.84Z" style="fill:none;stroke:#b5b3ff;stroke-miterlimit:10;stroke-width:0.5px"/><path d="M347.3,110.46v3a5,5,0,0,1-5,5H215.19a5,5,0,0,1-5-5v-3a5,5,0,0,0,5,5H342.3a5,5,0,0,0,5-5Z" style="fill:#f2f2ff"/><path d="M347.3,91.84v21.58a5,5,0,0,1-5,5H215.19a5,5,0,0,1-5-5V91.84a5,5,0,0,1,5-5H342.3A5,5,0,0,1,347.3,91.84Z" style="fill:none;stroke:#b5b3ff;stroke-miterlimit:10;stroke-width:0.5px"/><path d="M533.8,110.46v3a5,5,0,0,1-5,5H401.69a5,5,0,0,1-5-5v-3a5,5,0,0,0,5,5H528.8a5,5,0,0,0,5-5Z" style="fill:#f2f2ff"/><path d="M533.8,91.84v21.58a5,5,0,0,1-5,5H401.69a5,5,0,0,1-5-5V91.84a5,5,0,0,1,5-5H528.8A5,5,0,0,1,533.8,91.84Z" style="fill:none;stroke:#b5b3ff;stroke-miterlimit:10;stroke-width:0.5px"/><path d="M720.3,110.46v3a5,5,0,0,1-5,5H588.19a5,5,0,0,1-5-5v-3a5,5,0,0,0,5,5H715.3a5,5,0,0,0,5-5Z" style="fill:#f2f2ff"/><path d="M720.3,91.84v21.58a5,5,0,0,1-5,5H588.19a5,5,0,0,1-5-5V91.84a5,5,0,0,1,5-5H715.3A5,5,0,0,1,720.3,91.84Z" style="fill:none;stroke:#b5b3ff;stroke-miterlimit:10;stroke-width:0.5px"/></svg>