<svg xmlns="http://www.w3.org/2000/svg" viewBox="0 0 343.45 151.2"><title>glider_</title><g id="TEXT"><path d="M169.5,76.62h9.92v9.44a13.31,13.31,0,0,1-2.31,2.12,14.72,14.72,0,0,1-2.76,1.56,14.91,14.91,0,0,1-3,1,15.28,15.28,0,0,1-3.13.33,14.45,14.45,0,0,1-3.8-.49A15,15,0,0,1,161,89.17,14,14,0,0,1,158.1,87,13.51,13.51,0,0,1,154.43,81a13.26,13.26,0,0,1-.51-3.69,13,13,0,0,1,.51-3.65,13.55,13.55,0,0,1,3.67-6A14,14,0,0,1,161,65.45a14.17,14.17,0,0,1,3.41-1.38,14.45,14.45,0,0,1,3.8-.49A14.45,14.45,0,0,1,178.65,68l-4.31,3.68a8,8,0,0,0-2.7-2.09,8.1,8.1,0,0,0-6.65-.11,8.11,8.11,0,0,0-2.6,1.79A8.36,8.36,0,0,0,160.63,74a9.14,9.14,0,0,0,0,6.72,8.26,8.26,0,0,0,1.76,2.69,8.14,8.14,0,0,0,2.6,1.8,8,8,0,0,0,3.19.65,8.35,8.35,0,0,0,2.77-.47A8.21,8.21,0,0,0,173.36,84V81h-3.88Z" style="fill:#00284b"/><path d="M189.74,64.29h6.09V85.16h10.93v5.22h-17Z" style="fill:#00284b"/><path d="M215.7,64.29h6.08V90.38H215.7Z" style="fill:#00284b"/><path d="M232.32,64.29h10.59a17.54,17.54,0,0,1,5.52.84,12.45,12.45,0,0,1,4.42,2.49,11.5,11.5,0,0,1,2.94,4.08,13.86,13.86,0,0,1,1.06,5.61,14.91,14.91,0,0,1-.91,5.33,11.06,11.06,0,0,1-2.68,4.12,12.32,12.32,0,0,1-4.37,2.67,17.18,17.18,0,0,1-5.92.95H232.32Zm10.49,20.87a8.08,8.08,0,0,0,5.92-2,7.7,7.7,0,0,0,2-5.76,10.1,10.1,0,0,0-.49-3.26,6.48,6.48,0,0,0-1.47-2.49,6.61,6.61,0,0,0-2.49-1.58,10.06,10.06,0,0,0-3.51-.56H238.4V85.16Z" style="fill:#00284b"/><path d="M266.07,64.29h18.38v5.23h-12.3v5.34H282.7v5.22H272.15v5.08h12.47v5.22H266.07Z" style="fill:#00284b"/><path d="M304.16,81.88h-3.88v8.5H294.2V64.29h11.43a10.71,10.71,0,0,1,3.78.64,9.08,9.08,0,0,1,3,1.8,8.18,8.18,0,0,1,2,2.78,8.93,8.93,0,0,1,.7,3.6,9.5,9.5,0,0,1-.34,2.6,8.56,8.56,0,0,1-1,2.22,7.59,7.59,0,0,1-1.54,1.76,9.08,9.08,0,0,1-2,1.29l5.51,9.4h-7Zm1.22-5.22a3.79,3.79,0,0,0,1.4-.26,3.5,3.5,0,0,0,1.15-.72,3.32,3.32,0,0,0,.76-1.11,3.92,3.92,0,0,0,0-2.91,3.45,3.45,0,0,0-.76-1.14,3.64,3.64,0,0,0-2.55-1h-5.1v7.16Z" style="fill:#00284b"/></g><g id="logos"><rect x="60.88" y="27.31" width="32.2" height="32.2" style="fill:#289bdc"/><polygon points="125.28 59.51 125.28 91.7 93.08 123.9 28.68 123.9 28.68 91.7 93.08 91.7 93.08 59.51 125.28 59.51" style="fill:#289bdc"/></g></svg>