<svg width="1829" height="453" viewBox="0 0 1829 453" fill="none" xmlns="http://www.w3.org/2000/svg">
<path d="M678.28 149.36C672.64 155.84 665.68 161 657.4 164.84C649.12 168.56 639.58 170.42 628.78 170.42C618.94 170.42 609.82 168.8 601.42 165.56C593.14 162.32 585.94 157.76 579.82 151.88C573.7 145.88 568.9 138.74 565.42 130.46C561.94 122.18 560.2 113.06 560.2 103.1C560.2 92.9 561.94 83.66 565.42 75.38C569.02 67.1 573.94 60.08 580.18 54.32C586.42 48.44 593.74 43.94 602.14 40.82C610.54 37.7 619.6 36.14 629.32 36.14C638.32 36.14 647.14 37.76 655.78 41C664.54 44.12 671.62 48.74 677.02 54.86L656.14 75.74C653.26 71.78 649.48 68.84 644.8 66.92C640.12 65 635.32 64.04 630.4 64.04C625 64.04 620.02 65.06 615.46 67.1C611.02 69.02 607.18 71.72 603.94 75.2C600.7 78.68 598.18 82.82 596.38 87.62C594.58 92.3 593.68 97.46 593.68 103.1C593.68 108.86 594.58 114.14 596.38 118.94C598.18 123.74 600.64 127.88 603.76 131.36C607 134.72 610.84 137.36 615.28 139.28C619.72 141.2 624.58 142.16 629.86 142.16C635.98 142.16 641.32 140.96 645.88 138.56C650.44 136.16 654.1 133.04 656.86 129.2L678.28 149.36ZM871.703 102.74C871.703 112.82 869.963 122.06 866.483 130.46C863.003 138.74 858.143 145.88 851.903 151.88C845.783 157.76 838.463 162.32 829.943 165.56C821.423 168.8 812.183 170.42 802.223 170.42C792.263 170.42 783.023 168.8 774.503 165.56C766.103 162.32 758.783 157.76 752.543 151.88C746.423 145.88 741.623 138.74 738.143 130.46C734.663 122.06 732.923 112.82 732.923 102.74C732.923 92.54 734.663 83.36 738.143 75.2C741.623 66.92 746.423 59.9 752.543 54.14C758.783 48.38 766.103 43.94 774.503 40.82C783.023 37.7 792.263 36.14 802.223 36.14C812.183 36.14 821.423 37.7 829.943 40.82C838.463 43.94 845.783 48.38 851.903 54.14C858.143 59.9 863.003 66.92 866.483 75.2C869.963 83.36 871.703 92.54 871.703 102.74ZM838.763 102.74C838.763 97.22 837.863 92.06 836.063 87.26C834.263 82.46 831.743 78.38 828.503 75.02C825.383 71.54 821.543 68.84 816.983 66.92C812.543 64.88 807.623 63.86 802.223 63.86C796.823 63.86 791.903 64.88 787.463 66.92C783.023 68.84 779.183 71.54 775.943 75.02C772.703 78.38 770.183 82.46 768.383 87.26C766.703 92.06 765.863 97.22 765.863 102.74C765.863 108.5 766.763 113.84 768.563 118.76C770.363 123.56 772.823 127.7 775.943 131.18C779.183 134.66 783.023 137.42 787.463 139.46C791.903 141.38 796.823 142.34 802.223 142.34C807.623 142.34 812.543 141.38 816.983 139.46C821.423 137.42 825.263 134.66 828.503 131.18C831.743 127.7 834.263 123.56 836.063 118.76C837.863 113.84 838.763 108.5 838.763 102.74ZM941.468 167V39.56H972.428V140.18H1021.75V167H941.468ZM1213.11 102.74C1213.11 112.82 1211.37 122.06 1207.89 130.46C1204.41 138.74 1199.55 145.88 1193.31 151.88C1187.19 157.76 1179.87 162.32 1171.35 165.56C1162.83 168.8 1153.59 170.42 1143.63 170.42C1133.67 170.42 1124.43 168.8 1115.91 165.56C1107.51 162.32 1100.19 157.76 1093.95 151.88C1087.83 145.88 1083.03 138.74 1079.55 130.46C1076.07 122.06 1074.33 112.82 1074.33 102.74C1074.33 92.54 1076.07 83.36 1079.55 75.2C1083.03 66.92 1087.83 59.9 1093.95 54.14C1100.19 48.38 1107.51 43.94 1115.91 40.82C1124.43 37.7 1133.67 36.14 1143.63 36.14C1153.59 36.14 1162.83 37.7 1171.35 40.82C1179.87 43.94 1187.19 48.38 1193.31 54.14C1199.55 59.9 1204.41 66.92 1207.89 75.2C1211.37 83.36 1213.11 92.54 1213.11 102.74ZM1180.17 102.74C1180.17 97.22 1179.27 92.06 1177.47 87.26C1175.67 82.46 1173.15 78.38 1169.91 75.02C1166.79 71.54 1162.95 68.84 1158.39 66.92C1153.95 64.88 1149.03 63.86 1143.63 63.86C1138.23 63.86 1133.31 64.88 1128.87 66.92C1124.43 68.84 1120.59 71.54 1117.35 75.02C1114.11 78.38 1111.59 82.46 1109.79 87.26C1108.11 92.06 1107.27 97.22 1107.27 102.74C1107.27 108.5 1108.17 113.84 1109.97 118.76C1111.77 123.56 1114.23 127.7 1117.35 131.18C1120.59 134.66 1124.43 137.42 1128.87 139.46C1133.31 141.38 1138.23 142.34 1143.63 142.34C1149.03 142.34 1153.95 141.38 1158.39 139.46C1162.83 137.42 1166.67 134.66 1169.91 131.18C1173.15 127.7 1175.67 123.56 1177.47 118.76C1179.27 113.84 1180.17 108.5 1180.17 102.74ZM1363.87 167L1312.57 83.66H1312.03L1312.75 167H1282.87V39.56H1317.97L1369.09 122.72H1369.63L1368.91 39.56H1398.79V167H1363.87ZM1536.5 113V167H1505.72V113L1457.84 39.56H1495.1L1522.28 86.72L1549.46 39.56H1585.46L1536.5 113ZM647.14 413L595.84 329.66H595.3L596.02 413H566.14V285.56H601.24L652.36 368.72H652.9L652.18 285.56H682.06V413H647.14ZM757.847 413V285.56H843.527V311.66H787.547V335.6H840.467V360.26H787.547V386.72H846.767V413H757.847ZM971.223 311.84V413H940.443V311.84H904.443V285.56H1007.22V311.84H971.223ZM1205.77 413H1175.35L1150.15 326.78H1149.61L1124.41 413H1093.81L1057.63 285.56H1090.75L1110.91 370.34H1111.45L1134.13 285.56H1166.17L1189.03 370.34H1189.57L1210.09 285.56H1242.13L1205.77 413ZM1435.57 348.74C1435.57 358.82 1433.83 368.06 1430.35 376.46C1426.87 384.74 1422.01 391.88 1415.77 397.88C1409.65 403.76 1402.33 408.32 1393.81 411.56C1385.29 414.8 1376.05 416.42 1366.09 416.42C1356.13 416.42 1346.89 414.8 1338.37 411.56C1329.97 408.32 1322.65 403.76 1316.41 397.88C1310.29 391.88 1305.49 384.74 1302.01 376.46C1298.53 368.06 1296.79 358.82 1296.79 348.74C1296.79 338.54 1298.53 329.36 1302.01 321.2C1305.49 312.92 1310.29 305.9 1316.41 300.14C1322.65 294.38 1329.97 289.94 1338.37 286.82C1346.89 283.7 1356.13 282.14 1366.09 282.14C1376.05 282.14 1385.29 283.7 1393.81 286.82C1402.33 289.94 1409.65 294.38 1415.77 300.14C1422.01 305.9 1426.87 312.92 1430.35 321.2C1433.83 329.36 1435.57 338.54 1435.57 348.74ZM1402.63 348.74C1402.63 343.22 1401.73 338.06 1399.93 333.26C1398.13 328.46 1395.61 324.38 1392.37 321.02C1389.25 317.54 1385.41 314.84 1380.85 312.92C1376.41 310.88 1371.49 309.86 1366.09 309.86C1360.69 309.86 1355.77 310.88 1351.33 312.92C1346.89 314.84 1343.05 317.54 1339.81 321.02C1336.57 324.38 1334.05 328.46 1332.25 333.26C1330.57 338.06 1329.73 343.22 1329.73 348.74C1329.73 354.5 1330.63 359.84 1332.43 364.76C1334.23 369.56 1336.69 373.7 1339.81 377.18C1343.05 380.66 1346.89 383.42 1351.33 385.46C1355.77 387.38 1360.69 388.34 1366.09 388.34C1371.49 388.34 1376.41 387.38 1380.85 385.46C1385.29 383.42 1389.13 380.66 1392.37 377.18C1395.61 373.7 1398.13 369.56 1399.93 364.76C1401.73 359.84 1402.63 354.5 1402.63 348.74ZM1573.56 413L1546.02 362.42H1535.58V413H1505.34V285.56H1553.94C1560.06 285.56 1566 286.22 1571.76 287.54C1577.64 288.74 1582.86 290.84 1587.42 293.84C1592.1 296.84 1595.82 300.8 1598.58 305.72C1601.34 310.64 1602.72 316.76 1602.72 324.08C1602.72 332.72 1600.38 339.98 1595.7 345.86C1591.02 351.74 1584.54 355.94 1576.26 358.46L1609.56 413H1573.56ZM1572.3 324.62C1572.3 321.62 1571.64 319.22 1570.32 317.42C1569.12 315.5 1567.5 314.06 1565.46 313.1C1563.54 312.02 1561.32 311.3 1558.8 310.94C1556.4 310.58 1554.06 310.4 1551.78 310.4H1535.4V340.1H1549.98C1552.5 340.1 1555.08 339.92 1557.72 339.56C1560.36 339.08 1562.76 338.3 1564.92 337.22C1567.08 336.14 1568.82 334.58 1570.14 332.54C1571.58 330.5 1572.3 327.86 1572.3 324.62ZM1752.13 413L1704.79 354.32H1704.43V413H1674.19V285.56H1704.43V337.4H1704.97L1750.51 285.56H1789.03L1734.13 344.24L1792.27 413H1752.13Z" fill="#289BDC"/>
<rect x="107.676" width="152.276" height="152.276" transform="rotate(45 107.676 0)" fill="#289BDC"/>
<rect x="107.676" y="236.656" width="152.276" height="152.276" transform="rotate(45 107.676 236.656)" fill="#289BDC"/>
<rect x="339.984" width="152.276" height="152.276" transform="rotate(45 339.984 0)" fill="#289BDC"/>
<rect x="339.984" y="236.656" width="152.276" height="152.276" transform="rotate(45 339.984 236.656)" fill="#289BDC"/>
</svg>
